# xmcd
#
# Track frame offsets:
# 150
# 15265
# 32609
# 50065
# 68363
# 81342
# 98765
# 112963
# 128090
# 145477
# 163864
# 178548
# 197481
#
# Disc length: 2888 seconds
#
#
# Revision: 1
# Processed by: cddbd v1.5.1PL2 Copyright (c) Steve Scherf et al.
# Submitted via: FreeRIP 2.80 
#
DISCID=a30b460d
DTITLE=Melendi - Sin Noticias De Holanda (Edicion Especial)
DYEAR=2003
DGENRE=Rock
TTITLE0=Mi runbita pa tus pies
TTITLE1=Desde mi ventana
TTITLE2=Sé lo que hicisteis
TTITLE3=Sin noticias de holanda
TTITLE4=Un recuerdo que olvidar
TTITLE5=Con la luna llena
TTITLE6=Hablando en plata
TTITLE7=El informe del forense
TTITLE8=Vuelvo a traficar
TTITLE9=Una historia de tantas
TTITLE10=Contando primaveras
TTITLE11=Asturias (Bonus Track)
TTITLE12=Moratalá (Bonus Track)
EXTD=
EXTT0=
EXTT1=
EXTT2=
EXTT3=
EXTT4=
EXTT5=
EXTT6=
EXTT7=
EXTT8=
EXTT9=
EXTT10=
EXTT11=
EXTT12=
PLAYORDER=
